<svg width="22" height="21" viewBox="0 0 22 21" fill="none" xmlns="http://www.w3.org/2000/svg">
<path d="M13.3482 10.5L20.7388 3.07799C21.1261 2.68899 21.1261 2.05299 20.7388 1.66399L19.3855 0.304995C18.9982 -0.0840054 18.3649 -0.0840054 17.9775 0.304995L10.587 7.72699L3.19647 0.304995C2.80912 -0.0840054 2.17582 -0.0840054 1.78846 0.304995L0.435227 1.66399C0.0478767 2.05299 0.0478767 2.68899 0.435227 3.07799L7.82575 10.5L0.436223 17.922C0.0488725 18.311 0.0488725 18.947 0.436223 19.336L1.78946 20.695C2.17681 21.084 2.81011 21.084 3.19746 20.695L10.588 13.273L17.9785 20.695C18.3659 21.084 18.9992 21.084 19.3865 20.695L20.7398 19.336C21.1271 18.947 21.1271 18.311 20.7398 17.922L13.3482 10.5Z" fill="#EE3643"/>
</svg>
